<svg id="Layer_4" data-name="Layer 4" xmlns="http://www.w3.org/2000/svg" viewBox="0 0 1371.24 518.42"><defs><style>.cls-1{fill:#fff;}</style></defs><title>logo-new-white</title><path class="cls-1" d="M134.34,314.84l1.54-8.94-37.29-6.44-5,29.22L121,333.43l-2,11.78-27.48-4.75-13.75,79.6a9.47,9.47,0,0,0,7.4,10.49l5,0.87-2,11.78L48.88,436.4l2-11.78,4.8,0.83a8.44,8.44,0,0,0,6.17-1.29,9.08,9.08,0,0,0,3.91-5.05l13.94-80.69-14-2.41,2-11.78,14,2.41,3.5-20.28a9.07,9.07,0,0,0-7.4-10.49l-4.8-.83,2-11.78,74.58,12.89-3.58,20.72Z"/><path class="cls-1" d="M193.77,450.81l0-12h4.65a9.07,9.07,0,0,0,9.09-9.06l0-16.6-46.7-.08,0,16.6a9.07,9.07,0,0,0,9.06,9.09h4.87l0,12-39.83-.07,0-12h4.87a8.75,8.75,0,0,0,6.42-2.64,8.49,8.49,0,0,0,2.67-6.19l0-16.82-9.74,0,0-12,9.74,0,0.08-47.8q0-19.47,9.58-34.29a79.44,79.44,0,0,1,25.71-24.74q16.58,10,26,24.61t9.35,34.54L219.47,430a8.32,8.32,0,0,0,2.76,6.2,8.86,8.86,0,0,0,6.3,2.67h4.87l0,12Zm13.89-97.35a55.33,55.33,0,0,0-6-25.46,50.76,50.76,0,0,0-17.34-19.5,53,53,0,0,0-17.07,19.45A54.51,54.51,0,0,0,161,353.38l-0.08,47.8,46.7,0.08Z"/><path class="cls-1" d="M320.12,439.33a74.24,74.24,0,0,1-30.65-2.2A78.81,78.81,0,0,1,243,401.52a76.19,76.19,0,0,1-7.88-59.68,78.81,78.81,0,0,1,35.61-46.45,74.28,74.28,0,0,1,29-10.08l5.92-.78,3.54,26.77-11.85,1.56-0.26-2a9.92,9.92,0,0,0-4.28-7,10.74,10.74,0,0,0-7.86-2.09,12.49,12.49,0,0,0-2.79.82,63.78,63.78,0,0,0-16.79,11.48,67.48,67.48,0,0,0-12.6,16.17,68.37,68.37,0,0,0-7.25,19.49,63.84,63.84,0,0,0,7.12,44.6A67.88,67.88,0,0,0,268,412.61a68.65,68.65,0,0,0,20.64,11.78A61.7,61.7,0,0,0,312.6,428l-11.73-88.86-11,1.45a8.13,8.13,0,0,0-5.69,3.43,8.94,8.94,0,0,0-1.68,6.7l0.61,4.61-11.85,1.56-3.36-25.45,43.22-5.71L326,438.55Z"/><path class="cls-1" d="M360,431.43l-3-11.57,4.71-1.23a8.74,8.74,0,0,0,5.54-4.19,8.49,8.49,0,0,0,1-6.67L347.85,329.4,334.14,333l-3-11.57,13.71-3.56-5.24-20.13a9.41,9.41,0,0,0-4.26-5.41,8.58,8.58,0,0,0-6.74-.87l-4.71,1.22-3-11.57,73.25-19,6.46,24.85-11.57,3-1.22-4.71a8.39,8.39,0,0,0-4.16-5.44,9,9,0,0,0-6.85-.85l-27.84,7.24,7.46,28.7,27-7,3,11.57-27,7,22.61,87,28.06-7.3a8.63,8.63,0,0,0,5.22-4.1,8.33,8.33,0,0,0,1.12-6.69l-1.28-4.93,11.56-3,6.52,25.06Z"/><path class="cls-1" d="M502.77,388.37l-4.15-11.21q3.37-1.72,4.25-3.82a5.5,5.5,0,0,0,.11-4.17,13.63,13.63,0,0,0-3.77-5.09,72.45,72.45,0,0,0-6.54-5.25q-3.69-2.64-7.55-5.11t-6.81-4.68a25.53,25.53,0,0,1-3.49,2.36q-1.86,1-4,2.3l7.84,21.17a8.56,8.56,0,0,0,4.82,5.06,8.86,8.86,0,0,0,6.84.3l4.77-1.77,4.15,11.21-37.36,13.83-4.15-11.21,4.36-1.61A9.07,9.07,0,0,0,467.46,379L428.1,272.77a9.07,9.07,0,0,0-11.66-5.36L412.08,269l-4.15-11.21,20.13-7.46a49.92,49.92,0,0,1,21.39-3.09,56.33,56.33,0,0,1,20.45,5.52A57.4,57.4,0,0,1,487,265.58,55.15,55.15,0,0,1,498.35,284a53.85,53.85,0,0,1,2.4,30.38A56.34,56.34,0,0,1,487.35,341q5,4,11.59,8.69a125.67,125.67,0,0,0,13.19,8.21,70.16,70.16,0,0,0,12.75,5.43q6.12,1.87,10.27.33l4.56-1.69,4.15,11.21ZM487.15,288.19a41.41,41.41,0,0,0-8.22-13.59A46.8,46.8,0,0,0,466.74,265,44.43,44.43,0,0,0,452,260a42.63,42.63,0,0,0-15.74.52l30.28,81.77a42.48,42.48,0,0,0,12.28-9.86,44.29,44.29,0,0,0,7.93-13.32,46.75,46.75,0,0,0,3-15.26A41.36,41.36,0,0,0,487.15,288.19Z"/><path class="cls-1" d="M556.76,367.5l-5-10.87,4.43-2a8.74,8.74,0,0,0,4.74-5.08,8.49,8.49,0,0,0-.16-6.74L513.67,239.5a9.07,9.07,0,0,0-12-4.49l-4.43,2-5-10.87,36.24-16.54,5,10.87-4.43,2a9.07,9.07,0,0,0-4.49,12l50.81,111.34,26.17-11.94a8.38,8.38,0,0,0,4.63-5,8.68,8.68,0,0,0-.26-6.69l-2.11-4.63,10.87-5,10.75,23.56Z"/><path class="cls-1" d="M632,332.32l-4.9-10.9,4.44-2a9.07,9.07,0,0,0,4.56-12L589.7,204.07a9.06,9.06,0,0,0-12-4.56l-4.44,2-4.9-10.9,36.34-16.32,4.9,10.9-4.44,2a9.06,9.06,0,0,0-4.56,12L647,302.53a9.07,9.07,0,0,0,12,4.56l4.44-2,4.9,10.9Z"/><path class="cls-1" d="M726.2,293.24L722,282l4.36-1.62a9.07,9.07,0,0,0,5.33-11.67l-10.51-28.2a104.48,104.48,0,0,0-28.72-42.2,109.52,109.52,0,0,0-44.63-24.69L689.21,284.6a9.07,9.07,0,0,0,11.67,5.33l4.56-1.7,4.17,11.2-37.33,13.91-4.17-11.2,4.56-1.7A9.07,9.07,0,0,0,678,288.77L638.43,182.6a9.07,9.07,0,0,0-11.67-5.33L622.2,179,618,167.77l20.12-7.5a1.3,1.3,0,0,1,.91-0.1,3.05,3.05,0,0,1,2.3-.15,112,112,0,0,1,33.24,11.23A120.23,120.23,0,0,1,703,191.82l-10.9-29.24a9.07,9.07,0,0,0-11.67-5.33l-4.35,1.62-4.18-11.2,37.33-13.91,4.17,11.2-4.77,1.78a8.84,8.84,0,0,0-5,4.69,8.56,8.56,0,0,0-.35,7l39.58,106.17a8.56,8.56,0,0,0,4.83,5,8.86,8.86,0,0,0,6.84.29l4.77-1.78,4.17,11.2Z"/><path class="cls-1" d="M841.41,178a74.75,74.75,0,0,1,1.82,30.09A79.86,79.86,0,0,1,814.41,259a71.62,71.62,0,0,1-27.25,13.78l-20.32,5.4-3.07-11.55,4.71-1.25a8.56,8.56,0,0,0,5.49-4.32,8.86,8.86,0,0,0,.95-6.78l-29.13-109.5a9.07,9.07,0,0,0-11.1-6.44L730,139.61l-3.07-11.55,20.32-5.4a71.62,71.62,0,0,1,30.49-1.58,81.09,81.09,0,0,1,28,10.07A78,78,0,0,1,828,150.86,75.55,75.55,0,0,1,841.41,178Zm-11.55,3.07a63,63,0,0,0-10.66-22,67,67,0,0,0-39.62-25.41,63,63,0,0,0-24.51-.46l33.68,126.61a62.94,62.94,0,0,0,21-12.58,67,67,0,0,0,21.76-41.74A63,63,0,0,0,829.86,181.05Z"/><path class="cls-1" d="M940.51,191.53a45.7,45.7,0,0,1-.8,19.08,50,50,0,0,1-7.8,16.75A48.42,48.42,0,0,1,918.51,240a46.23,46.23,0,0,1-17.63,6.7A46.8,46.8,0,0,1,888,247a53.82,53.82,0,0,1-12.47-2.89l1.07,6.55-11.79,1.93-5.58-34.07,11.79-1.93,1.39,8.52a8.91,8.91,0,0,0,3.95,6.31,21.39,21.39,0,0,0,7.45,3,39.39,39.39,0,0,0,8.44.86,45.06,45.06,0,0,0,6.66-.42,34.67,34.67,0,0,0,13.29-5.09,36.16,36.16,0,0,0,15.89-22.11,34.72,34.72,0,0,0,.59-14.22,32.11,32.11,0,0,0-4.44-12.06,40,40,0,0,0-8.14-9.32,66.84,66.84,0,0,0-10.6-7.23q-5.79-3.2-11.61-5.83l-4.83-2.12q-6.25-2.56-12.24-5.62a68.81,68.81,0,0,1-11-6.94,43.66,43.66,0,0,1-8.47-8.59,25.16,25.16,0,0,1-4.5-11,25.6,25.6,0,0,1,.48-10.73,28.27,28.27,0,0,1,4.39-9.47,27.13,27.13,0,0,1,7.48-7.06,24.89,24.89,0,0,1,9.49-3.68,30.25,30.25,0,0,1,10.55.07l-0.36-2.18,11.79-1.93,4.26,26-11.79,1.93-0.79-4.8a8,8,0,0,0-4-6.18,11.37,11.37,0,0,0-7.47-1.13,14.73,14.73,0,0,0-9.47,5.81,14.11,14.11,0,0,0-2.72,11.43,17.86,17.86,0,0,0,7.26,11.48,72.44,72.44,0,0,0,14.62,8.48l12.32,5.38q7,3.11,13.81,6.93A68.69,68.69,0,0,1,925.12,164a54,54,0,0,1,9.79,11.85A42.93,42.93,0,0,1,940.51,191.53Z"/><path class="cls-1" d="M1086.16,104.69l0.08-4.65a9.07,9.07,0,0,0-8.92-9.23l-5.31-.09-2.1,122.36a9.07,9.07,0,0,0,8.92,9.23l4.87,0.08-0.21,11.95-39.83-.68,0.21-11.95,4.65,0.08a9.07,9.07,0,0,0,9.23-8.92l2.1-122.36-5.09-.09a9.07,9.07,0,0,0-9.23,8.92l-0.08,4.65-11.95-.2,0.44-25.67,64.61,1.11-0.44,25.67Z"/><path class="cls-1" d="M1100.23,235.21l1.06-11.9,4.85,0.43a9.07,9.07,0,0,0,9.85-8.23l10.09-112.86a9.07,9.07,0,0,0-8.23-9.85l-4.85-.43,1.06-11.9L1153.75,84l-1.06,11.9-4.85-.43a9.07,9.07,0,0,0-9.85,8.23L1127.9,216.58a9.07,9.07,0,0,0,8.23,9.85l4.85,0.43-1.06,11.9Z"/><path class="cls-1" d="M1254.31,180.29a74.78,74.78,0,0,1-11.58,27.83,79.86,79.86,0,0,1-48.27,33.1,71.63,71.63,0,0,1-30.53.4l-20.62-4.07,2.31-11.72,4.78,0.94a8.56,8.56,0,0,0,6.83-1.47,8.85,8.85,0,0,0,3.83-5.67L1183,108.46a9.07,9.07,0,0,0-7.14-10.66l-4.78-.94,2.31-11.72L1194,89.21a71.64,71.64,0,0,1,28.09,12,81.08,81.08,0,0,1,20.71,21.34A78,78,0,0,1,1254.19,150,75.55,75.55,0,0,1,1254.31,180.29ZM1242.58,178a63,63,0,0,0,.09-24.46,67,67,0,0,0-24.43-40.24,63,63,0,0,0-21.81-11.19l-25.37,128.53a63,63,0,0,0,24.43-2.06,67,67,0,0,0,37.88-27.94A63,63,0,0,0,1242.58,178Z"/><path class="cls-1" d="M863.94,300.94l-9.7,2.24c-3.17.71-7,1.66-11.59,2.79l-7.33,1.82L827,310c-5.85,1.49-12.28,3.35-19.29,5.28s-14.55,4.22-22.57,6.76c-16.06,5-34.06,11-53.46,18.22s-40.2,15.57-61.87,25.16l-16.41,7.42c-5.5,2.59-11.09,5.17-16.69,7.86l-17,8.29-17.4,8.35-8.81,4.23c-3,1.41-5.89,2.87-8.94,4.18l-18.31,8.16c-12.23,5.64-24.86,10.62-37.52,15.88-3.17,1.29-6.32,2.65-9.54,3.88l-9.66,3.66-19.42,7.35C483.6,447,477,449.2,470.44,451.5s-13.13,4.64-19.81,6.64l-19.95,6.25c-3.31,1.08-6.67,2-10,2.95l-10,2.83c-13.33,3.94-26.82,7.09-40.14,10.46-6.69,1.58-13.39,3-20,4.45l-10,2.17-10,1.88L320.59,491c-3.29.62-6.57,1.28-9.86,1.76l-19.58,3.11c-26,3.73-51.25,6.28-75.31,7.66s-46.92,1.37-68,.59-40.41-2.48-57.48-4.73-31.89-5-44-7.7-21.66-5.35-28.16-7.37-10-3.4-10.29-3.51a12.23,12.23,0,1,1,9.26-22.63c-0.25-.1,2.63,1.12,8.49,3.08s14.64,4.63,26.08,7.44,25.52,5.73,41.85,8.26,34.95,4.55,55.35,5.78,42.59,1.65,66.07.88,48.22-2.78,73.72-5.87l19.25-2.62c3.24-.4,6.46-1,9.71-1.51L327.4,472l9.82-1.63,9.83-1.92c6.56-1.32,13.18-2.53,19.79-3.94,13.17-3,26.51-5.84,39.72-9.43l10-2.57c3.32-.85,6.65-1.69,9.94-2.69l19.81-5.73c6.63-1.82,13.14-4,19.7-6.12s13.1-4.15,19.59-6.35l19.35-6.84,9.64-3.41c3.2-1.14,6.35-2.43,9.52-3.63,12.63-4.92,25.27-9.59,37.43-14.88l18.24-7.65c3-1.23,6-2.63,9-4l8.9-4,17.58-8,17.2-7.91c5.71-2.6,11.41-5.07,17-7.56l16.71-7.11c22.06-9.19,43.21-17.16,62.91-24s38-12.49,54.22-17.16c8.12-2.38,15.79-4.39,22.86-6.31s13.6-3.52,19.52-4.89l8.38-2,7.42-1.67c4.61-1,8.53-1.91,11.71-2.55l9.74-2A2.5,2.5,0,0,1,863.94,300.94Z"/><path class="cls-1" d="M1251.9,309.44c-0.5-.17-51.08-17.34-125.15-24.66l0.49-5c74.69,7.38,125.78,24.74,126.28,24.91Z"/><path class="cls-1" d="M182.66,508.09q-3.59,0-7.16,0c-83.11-.83-143.09-16.6-163.2-24.82l0.38-.93c20.06,8.2,79.92,23.93,162.89,24.75,60.9,0.6,125.2-6.55,191.12-21.26,82.4-18.39,167.57-48.7,253.14-90.1C700,356.9,781.93,328.5,863.3,311.28l0.21,1c-81.29,17.2-163.13,45.57-243.24,84.33-85.66,41.44-170.91,71.78-253.4,90.19C303.45,500.93,241.51,508.09,182.66,508.09Z"/><path class="cls-1" d="M1252.55,320.82c-0.5-.17-51.27-17.42-125.6-24.76l0.1-1a689.28,689.28,0,0,1,91.15,15.19c21.79,5.21,34.55,9.57,34.68,9.62Z"/><path class="cls-1" d="M160,239.8c-47.68-1.8-83.28-8.54-104.75-13.87l1.21-4.85c21.24,5.28,56.48,11.94,103.73,13.73Z"/><path class="cls-1" d="M1289,63.87l-1.93-.62c-1.17-.39-3.15-1-5.65-1.73-5.08-1.48-12.63-3.57-22.34-6s-21.63-5-35.39-7.66c-3.44-.66-7-1.27-10.67-1.94l-5.58-1L1201.7,44c-3.89-.61-7.87-1.3-12-1.89l-12.56-1.77-3.23-.45-3.27-.39-6.64-.8c-4.47-.53-9-1.12-13.66-1.54l-14.16-1.39c-4.8-.42-9.68-0.75-14.62-1.14l-7.47-.57-7.58-.41-15.43-.82-15.79-.48c-2.66-.07-5.33-0.18-8-0.22l-8.09,0c-5.42,0-10.88-.09-16.38-0.07l-16.62.32-8.39.18-8.43.38-17,.77c-22.72,1.54-45.81,3.39-68.76,6.5-5.74.76-11.49,1.43-17.22,2.27l-17.12,2.72-8.54,1.36c-1.42.21-2.84,0.47-4.25,0.75l-4.23.8-16.87,3.21c-2.8.55-5.61,1-8.38,1.64l-8.3,1.85-16.47,3.66-4.09.91c-1.36.31-2.7,0.68-4,1l-8.05,2.06L790.16,66.5l-3.94,1-3.89,1.13-7.73,2.25-15.24,4.43c-5.05,1.39-9.95,3.09-14.82,4.66L730.12,84.7,723.06,87c-2.34.75-4.61,1.66-6.9,2.47l-13.45,4.91-13,4.75c-4.23,1.63-8.33,3.35-12.38,5-8.07,3.29-15.84,6.37-23.17,9.43l-20.61,9.19c-6.47,2.89-12.53,5.56-18.12,8.19s-10.76,4.92-15.42,7c-9.34,4.18-16.72,7.36-21.75,9.51l-7.74,3.28a2.5,2.5,0,0,1-2-4.58h0l7.62-3.47c5-2.28,12.22-5.65,21.41-10.05,4.59-2.21,9.66-4.67,15.16-7.39s11.51-5.62,17.94-8.7l20.5-9.81c7.3-3.28,15-6.59,23.08-10.12,4-1.74,8.12-3.59,12.34-5.34l13-5.14L713,80.8c2.28-.88,4.55-1.85,6.89-2.68l7.06-2.52,14.42-5.15c4.87-1.72,9.77-3.57,14.84-5.11l15.27-4.89L779.2,58l3.9-1.25,4-1.13,16-4.56,8.09-2.3c1.35-.38,2.7-0.79,4.07-1.14l4.11-1,16.57-4.16,8.35-2.09c2.79-.71,5.62-1.25,8.44-1.89l17-3.71,4.27-.93c1.42-.32,2.85-0.62,4.29-0.87l8.62-1.61,17.29-3.23c5.78-1,11.6-1.85,17.4-2.78,23.21-3.78,46.6-6.29,69.66-8.47l17.25-1.25,8.57-.62,8.53-.41,16.91-.78c5.6-.17,11.17-0.25,16.68-0.38l8.24-.17c2.74,0,5.46,0,8.17,0l16.11,0.05,15.77,0.41,7.74,0.21,7.64,0.38c5.06,0.26,10.05.47,15,.77l14.51,1c4.76,0.3,9.43.78,14,1.2l6.81,0.63,3.36,0.31,3.32,0.38,12.92,1.46c4.21,0.49,8.31,1.09,12.32,1.61l5.93,0.79,5.76,0.87c3.78,0.59,7.46,1.12,11,1.7,14.23,2.35,26.6,4.77,36.77,6.93s18.14,4.2,23.6,5.63c2.75,0.75,4.81,1.3,6.33,1.76l2.16,0.64a12.53,12.53,0,1,1-7.08,24l-0.26-.08Z"/><path class="cls-1" d="M160.07,224.53c-46.35-1.75-81.17-8.2-102.22-13.29l0.24-1c21,5.09,55.75,11.52,102,13.27Z"/><path class="cls-1" d="M564.88,137.72l-0.4-.92c18.28-7.88,36.9-16.4,55.34-25.32A1028.79,1028.79,0,0,1,877.4,26.3a1006,1006,0,0,1,214.45-17c121.72,3.48,200.35,28.64,201.13,28.89l-0.31,1c-0.78-.25-79.3-25.38-200.89-28.85a1005.2,1005.2,0,0,0-214.22,17,1027.83,1027.83,0,0,0-257.29,85.09C601.81,121.31,583.17,129.83,564.88,137.72Z"/><path class="cls-1" d="M182.57,241.75l0-4.72-7.8,0-0.07,14.79,16.54,0.08,0-8.21,3.84,0-0.06,11.94-28.6-.13,0-3.73,4.08,0,0.15-31.8-4.08,0,0-3.73,27.43,0.13-0.05,10.77-3.84,0,0-7L174.87,220l-0.06,13.4,7.8,0,0-4.14,3.84,0-0.06,12.46Z"/><path class="cls-1" d="M203.39,256.21l-0.54-11.93,3.84-.17,0.16,3.55a13,13,0,0,0,10.69,4.29c6.23-.28,9.24-3.22,9.06-7.12-0.52-11.4-22-5.23-22.67-18.91-0.28-6.23,4.06-10.74,12.15-11.11a16.08,16.08,0,0,1,8.54,1.83l-0.1-2.21,3.84-.17L228.84,225l-3.84.17-0.18-4a12.39,12.39,0,0,0-8.47-2.82c-5.93.27-8.31,3.06-8.15,6.67,0.47,10.36,22,5.06,22.66,18.79,0.33,7.21-5.49,11.33-13.34,11.69a16.33,16.33,0,0,1-10.44-2.67l0.14,3.14Z"/><path class="cls-1" d="M266.81,251.79l-0.32-3.36a16.62,16.62,0,0,1-10.11,4.36c-12.06,1.15-18.57-8.23-19.56-18.55s3.62-20.88,15.68-22a17.28,17.28,0,0,1,9.52,1.66l-0.24-2.55,3.83-.37,1.08,11.3-3.83.37-0.4-4.17a13.07,13.07,0,0,0-9.5-2.66c-9.33.89-12.7,9.7-11.91,18s5.77,16.3,15.1,15.4A13.15,13.15,0,0,0,266,243.5l-0.4-4.17,3.83-.37,1.19,12.46Z"/><path class="cls-1" d="M303.14,246.17l-0.53-3.69,3.69-.53-4.48-7.77-16.94,2.45-2,8.71,4-.58,0.54,3.69-11.18,1.62-0.53-3.69,2.65-.38,9.35-37.83,3.52-.51,19.58,33.64,2.65-.38L314,244.6Zm-13-32.31-4.42,19.06,14.18-2.05Z"/><path class="cls-1" d="M323.8,227.81l2,10.75,5.72-1.09,0.7,3.66-13.79,2.63-0.7-3.66,4-.76-5.95-31.23-4,.76-0.7-3.66,17.62-3.36c7.61-1.45,13.63,2.15,15,9.47,1.45,7.61-2.42,13.15-10.48,14.68Zm8.65-5.32c5.89-1.12,8.34-4.79,7.29-10.28-1-5.09-5.11-7.86-10.49-6.83l-9.38,1.79,3.26,17.1Z"/><path class="cls-1" d="M368.59,219.37l-1.07-4.59-7.6,1.76,3.34,14.41,16.11-3.74-1.86-8,3.74-.87L384,230l-27.86,6.47-0.84-3.63,4-.92-7.19-31-4,.92-0.84-3.63L374,192l2.44,10.5-3.74.87-1.59-6.87-15,3.48,3,13,7.6-1.76-0.94-4,3.74-.87,2.82,12.14Z"/><path class="cls-1" d="M433.61,212.51l3.7-1.06,1,3.58-6.21,1.78-15.35-12.74-8.12,2.33,3.52,12.26,4-1.14,1,3.58-11.87,3.41-1-3.58,3.92-1.12-8.77-30.57-3.92,1.13-1-3.58,17.47-5c6.44-1.85,12.83.56,14.79,7.39,1.8,6.27-1.22,11-5.81,13.12Zm-16.93-12.11c4.76-1.37,7.6-4.79,6.08-10-1.32-4.59-5.59-6.39-10-5.12l-9.41,2.7L407.67,203Z"/><path class="cls-1" d="M460.83,208.57c-11.73,3.84-20.76-3.5-24.07-13.62s-0.35-21.27,11.38-25.12,20.72,3.39,24,13.51S472.57,204.73,460.83,208.57Zm-11.57-35.31c-9,3-11.19,12.06-8.45,20.42s9.87,14.42,18.89,11.46,11.19-12.06,8.45-20.42S458.29,170.31,449.27,173.26Z"/><path class="cls-1" d="M501.77,194.31c-11.58,4.27-20.87-2.73-24.56-12.73s-1.13-21.25,10.45-25.52,20.83,2.62,24.52,12.62S513.35,190,501.77,194.31Zm-12.86-34.86c-8.91,3.29-10.74,12.46-7.69,20.72s10.39,14,19.3,10.76,10.74-12.46,7.69-20.72S497.81,156.17,488.91,159.45Z"/><path class="cls-1" d="M553.26,173.22l-1.42-3.45,3.77-1.55-10.52-25.58-3.8,22.6-2.75,1.13-18.43-13,10.35,25.15,3.77-1.55,1.42,3.45-11.26,4.63L523,181.65l3.77-1.55-12.1-29.41-3.77,1.55-1.42-3.45,7.11-2.92,21.65,15.59,4.42-26.31,7.05-2.9,1.42,3.45-3.77,1.55,12.1,29.41,3.77-1.55,1.42,3.45Z"/><path class="cls-1" d="M898.51,315.5c-12.17,2.1-20-6.47-21.85-17s2.74-21.1,14.9-23.2,20,6.35,21.83,16.86S910.68,313.4,898.51,315.5Zm-6.33-36.61c-9.35,1.62-12.82,10.31-11.32,19s7.68,15.69,17,14.08,12.82-10.31,11.32-19S901.54,277.27,892.18,278.89Zm-3.85-6.19-4,.69-0.78-4.53,4-.69Zm9.3-1.61-4,.69-0.78-4.53,4-.69Z"/><path class="cls-1" d="M952.19,303.21l3.81-.49,0.47,3.7-6.41.82-13.23-14.93-8.38,1.07L930.06,306l4.1-.52,0.47,3.7-12.25,1.56-0.47-3.7,4-.51-4-31.54-4,.51-0.47-3.7,18-2.29c6.64-.85,12.59,2.51,13.49,9.55,0.82,6.47-2.87,10.64-7.74,12.08ZM937.3,288.67c4.91-.62,8.23-3.57,7.54-9-0.6-4.74-4.55-7.17-9.12-6.59L926,274.31l2,15.54Z"/><path class="cls-1" d="M976.53,290.8l-0.4-4.7-7.78.66,1.25,14.74,16.48-1.4-0.69-8.18,3.83-.32,1,11.9-28.49,2.41-0.31-3.71,4.06-.34-2.68-31.68-4.06.34-0.31-3.71,27.33-2.31,0.91,10.74-3.83.32-0.6-7-15.32,1.3,1.13,13.35,7.78-.66-0.35-4.12,3.83-.32,1.05,12.42Z"/><path class="cls-1" d="M1016.22,302.17l-18.56.77-0.15-3.72,4.07-.17-1.32-31.77-4.07.17L996,263.73l18.85-.78c5.41-.22,11.24,2.62,11.54,9.72a9,9,0,0,1-5.71,8.63c4.57,0.68,8.37,3.67,8.6,9.32C1029.65,298.35,1023.5,301.87,1016.22,302.17Zm-1.77-35.65-10.06.42,0.56,13.56,10-.42c4.54-.19,7.53-2.64,7.35-7S1019.11,266.33,1014.46,266.52Zm0.24,17-9.6.4,0.63,15.13,9.89-.41c6.63-.28,9.79-2.8,9.58-8C1025,285.61,1020.8,283.27,1014.69,283.53Z"/><path class="cls-1" d="M1067.42,297.88l3.84,0,0,3.73-6.46,0L1053.63,285l-8.45,0-0.07,12.76,4.13,0,0,3.73-12.35-.07,0-3.73,4.08,0,0.17-31.8-4.08,0,0-3.73,18.17,0.1c6.7,0,12.15,4.14,12.11,11.25,0,6.52-4.25,10.17-9.26,11Zm-12.84-16.38c5,0,8.63-2.46,8.66-7.93,0-4.78-3.57-7.71-8.17-7.73l-9.79-.05-0.09,15.67Z"/><path class="cls-1" d="M1094.46,303.52c-12.33-.69-18.06-10.81-17.47-21.45s7.42-19.94,19.74-19.25,18.07,10.69,17.47,21.33S1106.78,304.21,1094.46,303.52Zm2.07-37.1c-9.48-.53-14.81,7.16-15.3,15.95s3.95,17,13.43,17.55,14.81-7.16,15.3-15.94S1106,266.95,1096.53,266.42Z"/><path class="cls-1" d="M863.5,330.69l-0.2-1c90.74-18.46,179.57-23.13,264-13.89l-0.11,1C1042.86,307.58,954.14,312.25,863.5,330.69Z"/><path class="cls-1" d="M171.82,204.67q-9.7,0-19.25-.28l0-1c53.93,1.58,111.48-3.55,171-15.24,75-14.72,153.27-39.94,232.61-74.95l0.4,0.92c-79.41,35-157.74,60.27-232.82,75C271.23,199.46,220.19,204.67,171.82,204.67Z"/><path class="cls-1" d="M556.43,113.67L536,121.79l-5.13,2c-1.79.71-3.66,1.48-5.65,2.18l-12.81,4.68c-4.58,1.66-9.44,3.49-14.6,5.3l-16.33,5.45-8.71,2.91c-3,1-6,1.84-9.12,2.79l-19.19,5.79-20.44,5.54-5.26,1.42-5.35,1.28-10.86,2.61-5.5,1.32c-1.84.44-3.69,0.9-5.56,1.27l-11.28,2.36L368.8,171.1l-11.61,2.08-11.71,2.09L333.64,177c-4,.57-7.92,1.22-11.9,1.74l-12,1.43-6,.72-3,.35-3,.27-12,1.08-6,.53-6,.37-11.91.73c-4,.25-7.91.29-11.84,0.44l-5.88.19c-2,.06-3.9.14-5.85,0.13l-11.6,0c-1.92,0-3.84,0-5.74,0l-5.7-.14-11.25-.29L193,184l-5.43-.29-5.36-.43-10.54-.86c-6.91-.78-13.66-1.37-20.15-2.32-3.25-.46-6.45-0.83-9.58-1.33l-9.2-1.48c-12-2.11-23-4.31-32.63-6.76s-18-4.78-24.89-7-12.22-4.2-15.89-5.69c-1.85-.75-3.24-1.33-4.25-1.78l-1.16-.52-0.45-.21A10,10,0,0,1,62,137.2l0.18,0.09,0.29,0.14,1,0.52c0.74,0.37,2,.94,3.57,1.66,3.21,1.45,8.09,3.46,14.43,5.81s14.2,4.93,23.33,7.6,19.6,5.23,31.1,7.72l8.83,1.78c3,0.61,6.09,1.09,9.22,1.65,6.25,1.17,12.78,2,19.47,3l10.22,1.23,5.21,0.62,5.28,0.49,10.75,1,11,0.71,5.57,0.35c1.86,0.13,3.74.15,5.62,0.23l11.36,0.4c1.91,0.09,3.82.09,5.74,0.1l5.77,0c3.86,0,7.74.11,11.64,0l11.73-.26,5.9-.13,5.91-.29,11.85-.6,3-.15,3-.23,5.93-.47,11.86-.95c3.95-.36,7.88-0.84,11.81-1.26l11.77-1.29,11.66-1.61,11.57-1.61,11.41-1.91,11.28-1.9c1.87-.29,3.72-0.68,5.56-1l5.51-1.1,10.88-2.16,5.37-1.07,5.28-1.21,20.53-4.71,19.31-5c3.11-.83,6.2-1.57,9.19-2.43l8.79-2.55,16.48-4.79c5.21-1.6,10.11-3.23,14.75-4.71l13-4.17c2-.62,3.91-1.31,5.73-2l5.2-1.84Z"/><path class="cls-1" d="M1233.12,403.75l-3.19-3.1-3.83-3.73c-0.37-.35-0.77-0.77-1.17-1.11l-1.23-1.07L1221,392.4l-3-2.62c-1-.93-2.28-1.82-3.48-2.8l-3.84-3-2-1.59-2.18-1.54-4.58-3.24c-0.79-.55-1.57-1.14-2.41-1.68l-2.55-1.62-5.29-3.38c-0.89-.59-1.84-1.13-2.79-1.68l-2.89-1.67c-2-1.11-3.92-2.31-6-3.41l-6.35-3.31c-1.08-.56-2.16-1.14-3.27-1.69l-3.39-1.59-6.94-3.26-7.27-3.08c-1.23-.51-2.46-1.06-3.71-1.56l-3.81-1.45c-2.56-1-5.12-2-7.76-2.93l-8-2.74c-10.83-3.52-22.17-6.87-33.89-9.53l-4.4-1-4.44-.93c-3-.61-5.93-1.29-8.93-1.84l-9-1.64c-3-.57-6-1-9.07-1.46-6-1-12.15-1.68-18.21-2.49-6.08-.6-12.14-1.35-18.17-1.76-12.06-1.06-24-1.54-35.52-1.82-5.77-.07-11.45-0.19-17-0.09-2.78,0-5.53,0-8.25.1l-8.05.24c-2.65.06-5.26,0.18-7.83,0.32l-7.6.38q-7.47.49-14.41,1c-4.61.43-9,.8-13.24,1.24l-11.92,1.36L889,326c-3.23.44-6.19,0.94-8.86,1.34-5.36.79-9.53,1.6-12.39,2.09l-4.38.77,4.34-1c2.83-.63,7-1.66,12.29-2.71,2.66-.54,5.59-1.19,8.8-1.79l10.41-1.93,11.88-2c4.19-.65,8.61-1.25,13.22-1.92s9.43-1.18,14.42-1.76l7.62-.77c2.58-.27,5.2-0.53,7.86-0.72l8.09-.65c2.73-.22,5.5-0.34,8.3-0.52,5.6-.38,11.33-0.55,17.16-0.78,11.66-.3,23.74-0.42,36,0,6.14,0.11,12.32.56,18.53,0.86,6.2,0.51,12.44.88,18.65,1.6,3.11,0.35,6.23.59,9.32,1l9.29,1.21c3.09,0.41,6.16.95,9.23,1.42l4.6,0.73,4.56,0.85c12.17,2.13,24,5,35.44,8.07l8.46,2.43c2.79,0.83,5.51,1.77,8.23,2.64l4,1.32c1.34,0.45,2.65,1,4,1.43l7.77,2.85,7.47,3.05,3.65,1.5c1.2,0.51,2.37,1.08,3.55,1.6l6.9,3.16c2.25,1.06,4.4,2.22,6.54,3.3l3.17,1.62c1,0.53,2.08,1.06,3.07,1.64l5.85,3.33,2.82,1.61c0.93,0.53,1.8,1.12,2.68,1.67l5.12,3.25,2.44,1.55,2.29,1.61,4.34,3.06c1.38,1,2.74,1.87,4,2.89l3.59,2.83,3.22,2.55,1.47,1.17c0.48,0.38.85,0.73,1.26,1.08l4,3.53,3.34,2.94a10,10,0,0,1-13.2,15Z"/><path class="cls-1" d="M1174.64,394.17l1-2,0.52-1.06,0.36-.86,0.45-1a11.14,11.14,0,0,0,.42-1.31l0.44-1.49,0.3-1.64,0.17-.87c0-.3.05-0.6,0.08-0.9l0.16-1.9a31.73,31.73,0,0,0-.2-4,32.24,32.24,0,0,0-.77-4.22,33.19,33.19,0,0,0-1.49-4.12,33.79,33.79,0,0,0-2-3.86l-1.21-1.73c-0.2-.28-0.39-0.58-0.6-0.84l-0.66-.76-1.28-1.49-1.33-1.27c-0.44-.4-0.83-0.83-1.26-1.15l-1.23-.95-1.09-.84-1-.62L1162.5,354l2.19,0.57,1.17,0.31,1.33,0.5,1.53,0.57c0.55,0.19,1.07.5,1.65,0.77l1.79,0.9,1.82,1.14,1,0.61c0.32,0.22.61,0.46,0.93,0.7l1.91,1.49a39.74,39.74,0,0,1,3.61,3.65,40.26,40.26,0,0,1,3.27,4.32,41.14,41.14,0,0,1,2.57,4.87,41.74,41.74,0,0,1,1.89,5.11l0.59,2.57c0.09,0.42.2,0.84,0.27,1.26l0.16,1.25,0.3,2.42,0.07,2.29c0,0.75.07,1.42,0,2.16l-0.18,2.08-0.2,1.85L1190,396.6l-0.34,2.23a7.93,7.93,0,1,1-15.67-2.4A8.19,8.19,0,0,1,1174.64,394.17Z"/><path class="cls-1" d="M130.7,137.07l-0.08,2.26,0,1.18,0,0.93c0,0.35,0,.71,0,1.1a11.09,11.09,0,0,0,.15,1.36l0.2,1.55,0.39,1.63,0.2,0.87c0.08,0.29.19,0.57,0.29,0.86l0.62,1.8a31.81,31.81,0,0,0,1.82,3.6,32.3,32.3,0,0,0,2.41,3.54,33.25,33.25,0,0,0,3,3.16,33.83,33.83,0,0,0,3.39,2.72l1.8,1.09c0.3,0.18.59,0.37,0.89,0.53l0.91,0.43,1.77,0.84,1.73,0.62c0.56,0.18,1.1.43,1.62,0.54l1.51,0.37,1.34,0.33,1.16,0.16,2.23,0.31-2.23.37-1.19.19-1.42.09-1.63.1c-0.58,0-1.18,0-1.82,0l-2-.09-2.13-.31L144.5,169c-0.38-.07-0.75-0.18-1.13-0.27l-2.35-.59a39.71,39.71,0,0,1-4.78-1.87,40.23,40.23,0,0,1-4.73-2.62,41.11,41.11,0,0,1-4.32-3.41,41.69,41.69,0,0,1-3.79-3.91l-1.58-2.11c-0.25-.35-0.52-0.69-0.76-1l-0.65-1.07L119.14,150l-1-2.06c-0.3-.69-0.64-1.27-0.87-2l-0.68-2L116,142.2,115.71,141l-0.59-2.18a7.93,7.93,0,0,1,15.3-4.15A8.18,8.18,0,0,1,130.7,137.07Z"/><path class="cls-1" d="M12.49,155.16L4.65,7.84a7.45,7.45,0,0,1,7-7.83h0.8L948.91,7.84,12.49,15.68l7.84-7.84Z"/><path class="cls-1" d="M13.94,14.54L25,18c3.52,1.14,7.86,2.29,12.8,3.72s10.56,2.85,16.68,4.45c3.05,0.83,6.27,1.55,9.59,2.32s6.74,1.6,10.28,2.36c7.1,1.43,14.55,3.07,22.34,4.34,7.75,1.47,15.83,2.54,24,3.74,8.22,0.93,16.54,2,24.91,2.62,8.35,0.81,16.73,1.11,25,1.54,4.12,0.13,8.21.15,12.24,0.23l6,0.1,5.93-.11,11.54-.22,11-.6c7.17-.28,13.91-1.07,20.14-1.6l4.57-.42,4.35-.56,8-1c2.51-.35,4.87-0.59,7-1l5.95-1L278.69,35l0.29,0a7.84,7.84,0,1,1,2.62,15.47l-0.45.06-11.73,1.29-6.18.68c-2.25.25-4.69,0.36-7.3,0.57l-8.3.59-4.49.32-4.71.16c-6.42.18-13.36,0.58-20.72,0.44l-11.3,0L194.63,54l-6-.24-6.12-.45c-4.11-.32-8.26-0.58-12.44-1-8.35-.92-16.83-1.72-25.24-3-8.44-1.08-16.8-2.69-25-4.12-8.2-1.7-16.27-3.25-24-5.18C88,38.28,80.57,36.19,73.52,34.34c-3.51-1-6.9-2-10.19-3s-6.46-1.88-9.48-2.88c-6-2-11.6-3.67-16.45-5.43s-9.13-3.12-12.58-4.46Z"/><path class="cls-1" d="M16.92,14.54l9.87,6.06c3.12,2,7,4.16,11.44,6.76s9.5,5.37,15,8.43c2.74,1.55,5.68,3,8.69,4.61s6.12,3.22,9.36,4.82C77.8,48.36,84.6,51.79,91.82,55c7.13,3.34,14.69,6.38,22.3,9.59,7.72,2.94,15.5,6.09,23.46,8.74,7.88,2.87,15.93,5.25,23.79,7.74,4,1.15,7.92,2.2,11.81,3.29l5.8,1.6,5.77,1.38L196,90l10.84,2.2c7,1.54,13.76,2.47,19.94,3.54l4.54,0.75L235.67,97l8,1c2.53,0.3,4.88.67,7.08,0.85l6,0.54,11.43,1h0.16a4.29,4.29,0,1,1-.76,8.55h-0.14l-11.59-1.4-6.11-.74c-2.22-.26-4.6-0.71-7.16-1.1l-8.13-1.3-4.4-.7-4.58-.91c-6.23-1.28-13-2.44-20.09-4.23l-10.91-2.57L183.26,93l-5.79-1.58-5.82-1.8c-3.9-1.22-7.85-2.42-11.82-3.7-7.86-2.76-15.89-5.42-23.74-8.57-7.93-2.93-15.67-6.35-23.34-9.56-7.56-3.48-15-6.77-22.1-10.36C83.51,54,76.79,50.34,70.37,47c-3.19-1.71-6.25-3.48-9.23-5.14s-5.86-3.25-8.56-4.9C47.16,33.7,42.14,30.81,37.82,28S29.65,23,26.59,20.91Z"/><path class="cls-1" d="M185.26,111l-0.41,1.11-0.22.6-0.13.35a1.09,1.09,0,0,0-.06.23,6.66,6.66,0,0,1-.26.89l-0.26,1.54a15.89,15.89,0,0,0-.08,1.85,14,14,0,0,0,.73,4.45,15.3,15.3,0,0,0,7.29,8.78l0.74,0.38,0.37,0.2h0l-0.27-.09,0.07,0,0.14,0.05,0.27,0.1,1.1,0.41,0.54,0.2,0.33,0.08a15.31,15.31,0,0,0,3.18.57,16.73,16.73,0,0,0,7.09-1,17.16,17.16,0,0,0,6.1-4.09,11.6,11.6,0,0,0,1.2-1.4,13.19,13.19,0,0,0,1-1.52,14.6,14.6,0,0,0,.87-1.61l0.1-.2,0.05-.1,0-.05a1.73,1.73,0,1,1-.07.21v0l0.2-.55,0.4-1.09c0.06-.17.15-0.38,0.19-0.52l0.09-.37,0.2-.74a4.45,4.45,0,0,0,.17-0.82l0.15-.87a18.32,18.32,0,0,0,.12-3.43,18,18,0,0,0-1.54-6.18,17.28,17.28,0,0,0-3-4.61,19.47,19.47,0,0,0-1.63-1.65c-0.55-.46-1.08-0.85-1.55-1.23l-1.36-.86a11.49,11.49,0,0,0-1.05-.55L205.32,99,205,98.8a3.5,3.5,0,0,1,2.86-6.39l1.27,0.5c0.41,0.18.94,0.34,1.51,0.64l2,1c0.7,0.46,1.49.95,2.32,1.54a27.27,27.27,0,0,1,2.5,2.13,25.36,25.36,0,0,1,4.82,6.27,26.68,26.68,0,0,1,3,8.95,27.54,27.54,0,0,1,.27,5.23l-0.1,1.35a10.54,10.54,0,0,1-.17,1.41L225,123l-0.15.75c-0.05.23-.1,0.38-0.16,0.58l-0.31,1.12-0.16.56v0l-0.1.28,0,0.08-0.06.17-0.13.33a24.44,24.44,0,0,1-1.14,2.65,23.1,23.1,0,0,1-1.44,2.56,21.35,21.35,0,0,1-1.74,2.42,28.12,28.12,0,0,1-9.45,7.57,28.51,28.51,0,0,1-12,2.83,22.2,22.2,0,0,1-3.08-.12,23.48,23.48,0,0,1-3.25-.51l-0.83-.17-0.58-.16-1.13-.32-0.28-.08-0.14,0-0.07,0-0.38-.13-0.7-.27-1.38-.56a28.74,28.74,0,0,1-9.39-6.57,29.35,29.35,0,0,1-5.7-8.68,28.6,28.6,0,0,1-2.23-8.6,30.81,30.81,0,0,1-.16-3.75c0-1.16.16-2.22,0.24-3.19s0.37-2,.55-2.86c0-.19.09-0.45,0.13-0.55l0.1-.36,0.17-.62,0.32-1.14a7.84,7.84,0,1,1,15.11,4.21C185.4,110.61,185.33,110.83,185.26,111Z"/><path class="cls-1" d="M16.92,14.54l15.21,5.1c9.67,3.27,23.46,8,40.1,13.39,8.33,2.66,17.35,5.52,27,8.33s19.75,5.68,30.32,8.35S151,55,162.23,57.3l4.2,0.88L170.67,59c2.83,0.53,5.65,1.1,8.5,1.61,5.7,1,11.4,2,17.14,2.85s11.48,1.64,17.19,2.42c2.86,0.37,5.73.66,8.58,1s5.69,0.65,8.53.89l8.47,0.78c2.81,0.23,5.62.4,8.4,0.6,5.56,0.44,11.07.63,16.48,0.9s10.74,0.28,15.95.43c5.21,0,10.31,0,15.27,0S305,70.22,309.62,70s9.16-.42,13.47-0.71l12.37-.94,11.13-1.12c3.49-.32,6.75-0.76,9.76-1.15L364.62,65l15.64-2.42,0.22,0a7.84,7.84,0,1,1,2.4,15.5l-0.33,0L366.4,79.9l-8.53.74c-3.1.27-6.46,0.58-10.05,0.76l-11.44.67-12.7.43c-4.42.11-9,.1-13.8,0.15s-9.7-.13-14.76-0.19-10.26-.4-15.57-0.6c-5.3-.37-10.73-0.65-16.22-1.12s-11.09-.93-16.72-1.62c-2.82-.32-5.66-0.61-8.5-1L229.52,77c-2.87-.36-5.74-0.81-8.62-1.27s-5.77-.88-8.65-1.37c-5.76-1-11.55-2-17.3-3.18s-11.49-2.37-17.2-3.61c-2.85-.64-5.68-1.33-8.51-2l-4.23-1-4.2-1.07c-11.2-2.78-22.11-5.87-32.62-9s-20.59-6.44-30.1-9.67-18.43-6.47-26.66-9.48C55,29.26,41.43,23.94,31.9,20.27Z"/><path class="cls-1" d="M308.81,113.26l0.29,1.73,0.16,0.94,0.09,0.54a2.85,2.85,0,0,0,.11.42c0.15,0.52.3,1.12,0.45,1.81s0.58,1.63,1,2.56l0.68,1.4c0.12,0.24.23,0.5,0.36,0.75l0.45,0.73a24.74,24.74,0,0,0,5,6.09,26.81,26.81,0,0,0,18.75,6.91l1.45-.08,0.73,0h0l-0.21,0,0.11,0,0.21,0,0.43-.07,1.72-.28,0.85-.15,0.65-.18a21,21,0,0,0,2.72-.81l1.44-.53c0.49-.17.92-0.44,1.39-0.65a29.26,29.26,0,0,0,9.86-7.8A30,30,0,0,0,363.16,115c0.12-.53.3-1,0.36-1.58l0.23-1.6a24.06,24.06,0,0,0,.25-3.22l0-.81,0-.8-0.09-1.6,0-.4v-0.3a0.33,0.33,0,1,1,0,.08v-0.05l-0.14-.85-0.28-1.7a30.56,30.56,0,0,0-4.62-11.26A31.61,31.61,0,0,0,351,82.81a30.65,30.65,0,0,0-8.58-4.41l-1-.36c-0.34-.1-0.68-0.17-1-0.25l-1.92-.47c-1.24-.22-2.4-0.35-3.45-0.51l-2.82-.11c-0.83,0-1.52.07-2.09,0.08l-1.75.11,1.73-.28c0.57-.07,1.26-0.25,2.09-0.3l2.87-.18c1.07,0,2.27.06,3.57,0.16l2,0.28c0.35,0.05.71,0.09,1.07,0.16L342.86,77a32.58,32.58,0,0,1,9.52,3.75,34.63,34.63,0,0,1,15.92,20.32l0.45,1.66,0.23,0.84v0.05l0,0.19,0,0.12,0,0.23,0.08,0.46,0.3,1.86,0.14,0.94,0.06,1a29.71,29.71,0,0,1,.1,3.86l-0.09,2c0,0.66-.16,1.3-0.24,2a37.12,37.12,0,0,1-5.57,15,37.85,37.85,0,0,1-11.69,11.36c-0.59.35-1.15,0.75-1.76,1.05l-1.83.91a30.81,30.81,0,0,1-3.94,1.6l-1,.36-0.86.24-1.69.46-0.42.11-0.21.06-0.1,0-0.31.06H340l-1,.16-2,.31a38.45,38.45,0,0,1-15.31-1.11,39.47,39.47,0,0,1-12.57-6.11,38.47,38.47,0,0,1-8.53-8.43l-0.81-1.06c-0.24-.36-0.47-0.73-0.69-1.09l-1.29-2.09c-0.75-1.38-1.35-2.69-1.93-3.88-0.51-1.33-.94-2.54-1.31-3.6-0.08-.25-0.2-0.56-0.24-0.72l-0.14-.53-0.25-.92-0.46-1.69a7.85,7.85,0,0,1,15.15-4.1C308.71,112.74,308.76,113,308.81,113.26Z"/><path class="cls-1" d="M334.27,96.94l0.13,0.81,0.13,0.81a1.28,1.28,0,0,1,0,.37l0.23,0.84a8.83,8.83,0,0,0,.41,1,7.81,7.81,0,0,0,1.51,2.15,9.27,9.27,0,0,0,6.49,2.81h1l0.81-.13,0.4-.06,0.2,0a8,8,0,0,0,2-.62,11.27,11.27,0,0,0,4-2.91A12.06,12.06,0,0,0,354,97.29a8.56,8.56,0,0,0,.28-1.32,9.75,9.75,0,0,0,.14-1.35,10.79,10.79,0,0,0,0-1.36V93a0.48,0.48,0,1,1,0,.11v0l-0.06-.4-0.13-.8a12.93,12.93,0,0,0-1.9-4.87A14.22,14.22,0,0,0,345,81.32a15.44,15.44,0,0,0-1.81-.51c-0.57-.11-1.11-0.17-1.6-0.25a16,16,0,0,0-2.29,0l-0.82,0,0.79-.22a16.3,16.3,0,0,1,2.31-.47c0.51,0,1.08-.09,1.7-0.11a16.77,16.77,0,0,1,2,.12,15.7,15.7,0,0,1,4.78,1.33A17.08,17.08,0,0,1,359,90.55l0.29,0.75,0.15,0.38,0.16,0.58a16.18,16.18,0,0,1,.44,1.88,15.42,15.42,0,0,1,.24,2,14.28,14.28,0,0,1,0,2,19.2,19.2,0,0,1-2.16,8,19.92,19.92,0,0,1-5.62,6.56,15.86,15.86,0,0,1-1.83,1.22,16,16,0,0,1-2.12,1.07l-0.56.25-0.39.16-0.76.3-0.19.07-0.09,0,0,0-0.28.07h0l-0.52.14-1,.26a21,21,0,0,1-8.4.12,22.09,22.09,0,0,1-12.38-7.07,23.3,23.3,0,0,1-1.77-2.25c-0.49-.74-0.9-1.45-1.27-2.1s-0.69-1.49-.95-2.11l-0.43-1.07-0.3-.77a7.88,7.88,0,0,1,14.68-5.75A8.34,8.34,0,0,1,334.27,96.94Z"/><path class="cls-1" d="M142.56,20.54l0.52-.45,0.75-.64c0.46-.4,1-0.84,1.63-1.31s1.17-.75,1.85-1.14a20.55,20.55,0,0,1,2.3-1.06,19.43,19.43,0,0,1,12.55-.55,18.34,18.34,0,0,1,6.49,3.47l0.71,0.62,0.35,0.32,0,0L169.95,20l0,0L170,20.11l0.11,0.13,0.45,0.52L170.81,21l0.35,0.42a13.75,13.75,0,0,1,1.23,1.69,13.93,13.93,0,0,1,.92,1.67A17.23,17.23,0,0,1,175,32.11a16.51,16.51,0,0,1-1.54,7A15,15,0,0,1,171.7,42a13.9,13.9,0,0,1-1.08,1.25l-0.36.39-0.26.22-0.51.44a14.44,14.44,0,0,1-10.36,3.52,13.17,13.17,0,0,1-4.08-.88,14,14,0,0,1-1.55-.7c-0.45-.26-0.85-0.52-1.22-0.74a13.49,13.49,0,0,1-1.52-1.25l-0.5-.47,0.6,0.33a13.16,13.16,0,0,0,1.72.8c0.39,0.12.81,0.26,1.28,0.38a12.66,12.66,0,0,0,1.53.26,11.55,11.55,0,0,0,7.36-1.65,10.25,10.25,0,0,0,3-2.9l0.38-.55,0.19-.28v0a0.44,0.44,0,1,1-.08.09l0,0,0-.06,0.06-.12a8.43,8.43,0,0,0,.46-1,9,9,0,0,0,.58-2.06,9.36,9.36,0,0,0-.23-4.1,8.55,8.55,0,0,0-1.87-3.3,5.05,5.05,0,0,0-1.19-1L163.21,28l-0.14-.1-0.07,0,0,0,0.18,0.16h0l-0.19-.08-0.37-.16a6.62,6.62,0,0,0-5.17,0,5.27,5.27,0,0,0-1.56,1,5.93,5.93,0,0,0-.51.52c-0.14.18-.25,0.35-0.36,0.48a0.49,0.49,0,0,1,0,.18,0.1,0.1,0,0,1,0,.06l-0.12.18-0.21.31-0.39.56a7.9,7.9,0,1,1-13-9A8.24,8.24,0,0,1,142.56,20.54Z"/><path class="cls-1" d="M82.6,94.42l1.52-1.67,0.79-.88,0.59-.73,0.71-.84A11.14,11.14,0,0,0,87,89.17l0.85-1.31,0.75-1.49L89,85.58c0.13-.27.22-0.56,0.33-0.84L90,83A31.77,31.77,0,0,0,90.94,79a32.25,32.25,0,0,0,.45-4.26,33.23,33.23,0,0,0-.27-4.37,33.77,33.77,0,0,0-.83-4.27l-0.67-2c-0.11-.33-0.21-0.66-0.34-1l-0.42-.92-0.81-1.79-0.92-1.59c-0.31-.5-0.56-1-0.89-1.46l-0.91-1.25L84.52,55l-0.78-.87-1.51-1.67,1.94,1.16,1,0.63,1.14,0.85,1.31,1c0.47,0.34.88,0.78,1.36,1.21l1.47,1.36,1.43,1.61,0.75,0.85c0.24,0.3.46,0.62,0.69,0.93l1.42,2a39.73,39.73,0,0,1,2.44,4.52,40.24,40.24,0,0,1,1.92,5.06,41.12,41.12,0,0,1,1.1,5.4,41.74,41.74,0,0,1,.37,5.44l-0.15,2.63c0,0.43,0,.87-0.1,1.29l-0.19,1.24L99.77,92,99.2,94.23c-0.21.72-.33,1.38-0.61,2.07l-0.76,1.95L97.12,100l-0.51,1.08-1,2a7.93,7.93,0,0,1-14.36-6.71A8.18,8.18,0,0,1,82.6,94.42Z"/><path class="cls-1" d="M42.48,63.72l-0.72.92L40.9,65.75l-0.53.69L40,67,39.14,68.3l-1,1.92c-0.35.7-.6,1.49-1,2.3s-0.51,1.73-.82,2.67-0.41,2-.55,3a26.46,26.46,0,0,0-.19,3.31,27,27,0,0,0,1,7.22,29.34,29.34,0,0,0,3.16,7.31l1.17,1.72a18,18,0,0,0,1.31,1.65A13.55,13.55,0,0,0,43.64,101l0.77,0.75,0.38,0.38L45,102.32l0.1,0.1,0,0,0,0a0.85,0.85,0,1,1-.14-0.09l1.93,1.5c0.31,0.23.66,0.55,0.94,0.7l0.86,0.54,0.86,0.56a5.61,5.61,0,0,0,.91.53l1.94,1a31.51,31.51,0,0,0,8.24,2.39,30.53,30.53,0,0,0,8.21,0,30.89,30.89,0,0,0,3.81-.7c1.21-.32,2.37-0.72,3.48-1.09s2.14-.87,3.09-1.38,1.87-1,2.68-1.52l2.24-1.55c0.66-.53,1.24-1,1.78-1.5l0.76-.65c0.23-.22.42-0.44,0.62-0.63l1-1,0.81-.85-0.67,1-0.81,1.15c-0.16.23-.33,0.48-0.52,0.73l-0.67.77c-0.47.54-1,1.15-1.58,1.8l-2.06,1.94c-0.75.68-1.64,1.29-2.54,2s-2,1.27-3,2-2.3,1.2-3.56,1.74a34.3,34.3,0,0,1-4,1.4,34.82,34.82,0,0,1-9.24,1.34,37.19,37.19,0,0,1-10.09-1.35l-2.52-.83a8.89,8.89,0,0,1-1.27-.5l-1.29-.58-1.29-.59c-0.45-.2-0.74-0.4-1.11-0.6l-2.13-1.2-2.39-1.7a19.78,19.78,0,0,1-2.13-1.73,25.76,25.76,0,0,1-2-1.87l-1.87-2a39.39,39.39,0,0,1-5.75-9.14,40.18,40.18,0,0,1-3.37-14.65c0-1.56,0-3.08.11-4.55s0.31-2.86.58-4.18,0.54-2.57.9-3.72l1.08-3.21c0.43-1,.89-2,1.3-2.86l0.59-1.22,0.44-.8,0.69-1.23,0.57-1a7.86,7.86,0,0,1,13.71,7.69A8.6,8.6,0,0,1,42.48,63.72Z"/><path class="cls-1" d="M134.47,103.34l0.4-2.22,0.21-1.16,0.11-.93,0.16-1.09a11.12,11.12,0,0,0,0-1.37q0-.75,0-1.56l-0.15-1.67-0.08-.89c0-.3-0.11-0.59-0.17-0.89l-0.36-1.87a31.78,31.78,0,0,0-1.28-3.83A32.29,32.29,0,0,0,131.5,82,33.25,33.25,0,0,0,129,78.46a33.84,33.84,0,0,0-3-3.18l-1.63-1.34c-0.27-.22-0.53-0.45-0.81-0.65l-0.84-.56-1.63-1.09-1.62-.86c-0.53-.26-1-0.58-1.53-0.77l-1.44-.58-1.28-.52-1.12-.33L111.92,68l2.26,0,1.21,0L116.8,68l1.63,0.14c0.58,0,1.16.2,1.79,0.3l2,0.38,2.07,0.61,1.09,0.33c0.36,0.12.71,0.28,1.08,0.42l2.25,0.92a39.72,39.72,0,0,1,4.46,2.54,40.25,40.25,0,0,1,4.31,3.27,41.09,41.09,0,0,1,3.79,4,41.69,41.69,0,0,1,3.2,4.41l1.27,2.31c0.2,0.38.42,0.76,0.6,1.14l0.5,1.16,0.94,2.25,0.68,2.18c0.2,0.72.45,1.35,0.58,2.08l0.39,2.06,0.31,1.84,0.15,1.19,0.27,2.24a7.93,7.93,0,0,1-15.73,1.93A8.19,8.19,0,0,1,134.47,103.34Z"/><path class="cls-1" d="M1128,485.73l-1-2-0.52-1.06-0.46-.81-0.51-1a11.07,11.07,0,0,0-.77-1.14l-0.9-1.27-1.11-1.25-0.58-.67c-0.21-.22-0.44-0.41-0.66-0.62l-1.39-1.3a31.8,31.8,0,0,0-3.29-2.33,32.27,32.27,0,0,0-3.79-2,33.24,33.24,0,0,0-4.16-1.38,33.81,33.81,0,0,0-4.27-.82l-2.1-.12c-0.35,0-.69-0.05-1,0l-1,0-2,.08-1.82.26c-0.58.1-1.17,0.14-1.69,0.28l-1.5.38-1.34.34-1.1.4-2.12.77,1.8-1.37,1-.73,1.21-.74,1.4-.85c0.49-.31,1.06-0.53,1.63-0.82l1.81-.85,2-.73,1.07-.38c0.37-.11.74-0.19,1.12-0.29l2.36-.58a39.73,39.73,0,0,1,5.1-.58,40.24,40.24,0,0,1,5.41.1,41.09,41.09,0,0,1,5.42,1,41.7,41.7,0,0,1,5.18,1.68l2.39,1.12c0.39,0.19.79,0.37,1.16,0.57l1.08,0.64,2.09,1.26,1.84,1.36c0.59,0.46,1.16.82,1.69,1.34l1.52,1.43,1.33,1.3,0.82,0.87,1.54,1.65a7.93,7.93,0,1,1-11.58,10.83A8.19,8.19,0,0,1,1128,485.73Z"/><path class="cls-1" d="M1298.3,360.51l7.84,147.32a7.45,7.45,0,0,1-7,7.83h-0.8l-936.42-7.84L1298.3,500l-7.84,7.84Z"/><path class="cls-1" d="M1296.85,501.14l-11.1-3.43c-3.52-1.14-7.86-2.29-12.8-3.72s-10.57-2.85-16.68-4.45c-3.05-.83-6.27-1.55-9.59-2.32s-6.74-1.6-10.28-2.36c-7.1-1.43-14.55-3.07-22.34-4.34-7.75-1.47-15.83-2.54-24-3.74-8.22-.93-16.54-2-24.91-2.62-8.35-.81-16.73-1.11-25-1.54-4.12-.13-8.21-0.15-12.24-0.23l-6-.1-5.93.11-11.54.22-11,.6c-7.17.28-13.91,1.07-20.14,1.6l-4.57.42-4.35.56-8,1c-2.51.35-4.87,0.59-7,1l-5.95,1-11.27,1.91-0.29,0a7.84,7.84,0,1,1-2.62-15.47l0.45-.06,11.73-1.29,6.18-.68c2.25-.25,4.69-0.36,7.3-0.57l8.3-.59,4.49-.32,4.71-.16c6.42-.18,13.36-0.58,20.72-0.44l11.3,0,11.79,0.46,6,0.24,6.12,0.45c4.11,0.32,8.26.58,12.44,1,8.35,0.92,16.83,1.72,25.24,3,8.44,1.08,16.8,2.69,25,4.12,8.2,1.7,16.27,3.25,24,5.18,7.76,1.74,15.17,3.82,22.21,5.67,3.51,1,6.9,2,10.19,3s6.46,1.88,9.48,2.88c6,2,11.6,3.67,16.45,5.43s9.13,3.12,12.58,4.46Z"/><path class="cls-1" d="M1293.87,501.14l-9.87-6.06c-3.12-2-7-4.16-11.44-6.76s-9.5-5.37-15-8.43c-2.74-1.55-5.68-3-8.69-4.61s-6.12-3.22-9.36-4.82c-6.51-3.15-13.31-6.57-20.52-9.74-7.13-3.34-14.69-6.38-22.3-9.59-7.72-2.94-15.5-6.09-23.46-8.74-7.88-2.87-15.93-5.25-23.79-7.74-4-1.15-7.92-2.2-11.81-3.29l-5.8-1.6-5.77-1.38-11.24-2.69-10.84-2.2c-7-1.54-13.76-2.47-19.94-3.54l-4.54-.75-4.36-.55-8-1c-2.53-.3-4.88-0.67-7.08-0.85l-6-.54-11.43-1h-0.16a4.29,4.29,0,1,1,.76-8.55h0.14l11.59,1.41,6.11,0.74c2.22,0.26,4.6.71,7.16,1.1l8.13,1.3,4.4,0.7,4.58,0.91c6.23,1.28,13,2.44,20.09,4.23l10.91,2.57,11.29,3.08,5.79,1.58,5.82,1.8c3.9,1.22,7.85,2.42,11.82,3.7,7.86,2.76,15.89,5.42,23.74,8.57,7.93,2.93,15.67,6.35,23.34,9.56,7.56,3.48,15,6.77,22.1,10.36,7.14,3.41,13.86,7.07,20.28,10.43,3.19,1.71,6.25,3.48,9.23,5.14s5.86,3.25,8.56,4.9c5.43,3.24,10.45,6.14,14.77,8.92s8.17,5.06,11.23,7.12Z"/><path class="cls-1" d="M1293.87,501.14l-7-2.44-19.67-7.11c-8.47-3.07-18.75-6.78-30.61-10.86s-25.29-8.5-40.05-13-30.85-9-48-13.22c-4.28-1.09-8.65-2.06-13.05-3.12l-6.65-1.57-6.76-1.46c-4.53-1-9.1-2-13.74-2.92l-14.05-2.73-3.55-.68-3.58-.61-7.2-1.24c-4.82-.83-9.66-1.69-14.56-2.38l-14.77-2.2-15-1.9-7.53-.94-7.57-.77-15.21-1.53-15.3-1.18-7.66-.58-7.68-.4-15.35-.8-15.33-.42c-10.2-.39-20.37-0.22-30.45-0.27-5-.07-10.06.17-15.06,0.27l-14.9.39-14.71.77c-4.87.28-9.7,0.46-14.49,0.82l-14.23,1.14-7,.56c-2.33.18-4.64,0.36-6.93,0.63-9.18,1-18.17,1.92-26.9,3L774,437.87c-8.18,1.25-16.06,2.62-23.63,3.85s-14.78,2.67-21.65,4l-10,1.94c-3.25.63-6.41,1.22-9.45,1.93l-17,3.81c-5.26,1.2-10.11,2.19-14.43,3.35l-27.26,6.9-0.21.05a7.84,7.84,0,1,1-3.85-15.2l0.18,0,27.78-6.34c4.4-1.07,9.35-2,14.7-3l17.34-3.44c3.09-.65,6.31-1.17,9.61-1.73l10.2-1.73c7-1.16,14.3-2.52,22-3.51s15.7-2.26,24-3.32L798,422.44c8.86-.84,18-1.54,27.28-2.34,2.32-.22,4.67-0.35,7-0.47l7.1-.4,14.4-.81c4.84-.25,9.74-0.31,14.66-0.48l14.87-.42,15.06,0c5,0,10.12-.1,15.2.09,10.18,0.29,20.44.36,30.72,1l15.45,0.79,15.46,1.17,7.73,0.59,7.71,0.77,15.38,1.56,15.28,1.91,7.61,1,7.56,1.13,15,2.27,14.81,2.57c4.91,0.81,9.77,1.79,14.59,2.74l7.21,1.42,3.58,0.7,3.55,0.77,14.05,3.07c4.64,1,9.2,2.19,13.73,3.26l6.75,1.62,6.64,1.73c4.4,1.17,8.76,2.25,13,3.44,17.1,4.67,33.11,9.62,47.81,14.4s28,9.6,39.8,13.93,22,8.32,30.36,11.6l19.49,7.57Z"/><path class="cls-1" d="M1279.24,449.76l-1.52,1.67-0.79.88-0.59.73-0.71.84a11.09,11.09,0,0,0-.77,1.14l-0.85,1.31-0.75,1.49-0.41.79c-0.13.27-.22,0.56-0.33,0.84l-0.69,1.77a31.77,31.77,0,0,0-.94,3.92,32.29,32.29,0,0,0-.45,4.26,33.23,33.23,0,0,0,.27,4.37,33.81,33.81,0,0,0,.83,4.27l0.67,2c0.11,0.33.21,0.66,0.34,1l0.42,0.92,0.81,1.79,0.92,1.59c0.31,0.5.56,1,.89,1.46l0.91,1.25,0.81,1.12,0.78,0.87,1.51,1.67-1.94-1.16-1-.63-1.14-.85-1.31-1c-0.47-.34-0.88-0.78-1.36-1.21l-1.47-1.36-1.43-1.61-0.75-.85c-0.24-.3-0.46-0.62-0.69-0.93l-1.42-2a39.73,39.73,0,0,1-2.44-4.52,40.21,40.21,0,0,1-1.92-5.06,41.12,41.12,0,0,1-1.1-5.4,41.69,41.69,0,0,1-.37-5.44l0.15-2.63c0-.43,0-0.87.1-1.29l0.19-1.24,0.4-2.41,0.58-2.21c0.21-.72.33-1.38,0.61-2.07l0.76-1.95,0.71-1.72,0.51-1.08,1-2a7.93,7.93,0,0,1,14.36,6.71A8.19,8.19,0,0,1,1279.24,449.76Z"/><path class="cls-1" d="M1298.49,504.19l-5-3c-1.64-.94-3.57-2.26-5.87-3.76s-4.91-3.29-7.8-5.31c-11.62-8.07-27.65-20.37-47.28-34.51-9.85-7-20.6-14.52-32.22-22s-24.13-15-37.4-22.17c-3.3-1.81-6.71-3.48-10.1-5.25l-5.12-2.62-5.24-2.47-5.27-2.49c-1.76-.82-3.51-1.69-5.32-2.43l-10.83-4.64c-1.8-.81-3.65-1.5-5.5-2.2l-5.55-2.13-5.56-2.13c-1.86-.7-3.77-1.29-5.65-1.94l-11.35-3.81L1075.94,378c-1.93-.53-3.82-1.17-5.77-1.62l-5.82-1.41-5.81-1.41c-1.94-.44-3.86-1-5.82-1.33L1041,369.95l-2.91-.56-1.45-.28-1.46-.21-5.84-.84c-3.89-.54-7.75-1.15-11.61-1.63l-11.55-1.08-5.72-.54c-1.9-.17-3.81-0.19-5.7-0.29L983.48,364c-3.73-.25-7.44-0.08-11.1-0.09l-10.89.08c-1.8,0-3.58.15-5.35,0.23l-5.29.31-10.38.6c-1.71.06-3.39,0.33-5.07,0.48l-5,.54-9.75,1.06c-3.21.27-6.32,0.88-9.39,1.34l-9,1.43-4.37.69-2.15.34-2.11.44-8.19,1.72-7.78,1.63c-2.52.54-5,1-7.32,1.66l-13.16,3.42C853.1,381,849.34,381.86,846,383l-20.92,6.49-0.34.1a7.84,7.84,0,0,1-4.65-15l0.23-.07,21.69-6c3.43-1,7.33-1.81,11.53-2.8l13.62-3.1c2.42-.6,5-1,7.58-1.48l8.05-1.43,8.47-1.51,2.18-.38,2.23-.29,4.52-.58,9.32-1.19c3.17-.38,6.38-0.9,9.7-1.09l10.07-.78,5.15-.4c1.73-.11,3.46-0.33,5.23-0.34l10.69-.29,5.44-.15c1.83,0,3.66-.15,5.51-0.07l11.2,0.26c3.77,0.12,7.57.07,11.4,0.44l11.57,0.85c1.94,0.16,3.89.24,5.84,0.48l5.86,0.73,11.81,1.47c3.94,0.62,7.88,1.35,11.85,2l6,1,1.49,0.26,1.48,0.33,3,0.66,11.88,2.67c2,0.4,3.94,1,5.91,1.54l5.89,1.61,5.9,1.62c2,0.52,3.89,1.22,5.84,1.83l11.63,3.76,11.44,4.23c1.9,0.72,3.81,1.38,5.68,2.15l5.59,2.34,5.57,2.33c1.85,0.77,3.71,1.53,5.52,2.41l10.84,5c1.81,0.81,3.56,1.74,5.32,2.63L1145,398l5.22,2.66,5.1,2.81c3.37,1.89,6.77,3.68,10,5.61,13.17,7.62,25.5,15.63,37,23.47s22,15.75,31.66,23.08c19.23,14.77,34.86,27.53,46.21,35.94,2.83,2.11,5.36,4,7.62,5.54s4.14,2.94,5.75,3.93Z"/><path class="cls-1" d="M996.57,383.68l-0.09,1.23-0.05.67,0,0.39c0,0.11,0,.38-0.07.58-0.12.86-.27,1.86-0.47,3s-0.52,2-.89,3.17l-0.66,1.75a14.81,14.81,0,0,1-.81,1.83,29.49,29.49,0,0,1-5.19,7.55,30.27,30.27,0,0,1-8.58,6.41,29.66,29.66,0,0,1-11.42,3.07l-1.54.05-0.77,0h-0.64l-0.3,0-1.22-.09-0.63-.05-0.86-.12a24.25,24.25,0,0,1-3.32-.65,22.87,22.87,0,0,1-3-1,29.45,29.45,0,0,1-10.61-7,29.05,29.05,0,0,1-6.51-10.69,22.05,22.05,0,0,1-.83-3,23.87,23.87,0,0,1-.5-3,25.31,25.31,0,0,1-.18-3v-1l0-.61,0.09-1.2c0-.21,0-0.38.05-0.62l0.12-.78,0.25-1.54a10.83,10.83,0,0,1,.33-1.43l0.38-1.35a28.52,28.52,0,0,1,2.1-5,27.61,27.61,0,0,1,6.12-7.63,26.25,26.25,0,0,1,6.9-4.4,12.28,12.28,0,0,1,1.64-.66l1.55-.53c1-.28,2-0.48,2.8-0.68l2.29-.31c0.66-.09,1.24-0.06,1.7-0.09l1.41,0a3.5,3.5,0,0,1,.52,7l-0.41,0-1,.12a12.11,12.11,0,0,0-1.24.16l-1.64.35c-0.6.21-1.26,0.4-2,.65l-1.08.47a7.16,7.16,0,0,0-1.12.56,18.16,18.16,0,0,0-4.59,3.48,18.9,18.9,0,0,0-3.76,5.54,19.27,19.27,0,0,0-1.13,3.43l-0.17.91a4.77,4.77,0,0,0-.13.87l-0.07.81,0,0.41c0,0.15,0,.39,0,0.58v1.85a1.63,1.63,0,1,1,0-.22v0.06l0,0.12,0,0.24a15.39,15.39,0,0,0,.27,1.91,14,14,0,0,0,.48,1.88,12.28,12.28,0,0,0,.68,1.82,18.1,18.1,0,0,0,4.55,6.26,17.67,17.67,0,0,0,6.65,3.6,16.29,16.29,0,0,0,3.38.6l0.36,0h2.1l0.44-.06,0.87-.1a16.22,16.22,0,0,0,10.45-6.06,14.9,14.9,0,0,0,2.36-4.16,5.09,5.09,0,0,0,.33-1l0.26-.91,0.31-1.63a7.87,7.87,0,0,1,.07-1,1.21,1.21,0,0,0,0-.25V385q0-.37,0-0.67c0-.8,0-1.23,0-1.23a7.84,7.84,0,0,1,15.69-.06C996.6,383.26,996.59,383.48,996.57,383.68Z"/><path class="cls-1" d="M909.78,450l0.68-2,0.36-1.05,0.64-1.64,0.76-1.83c0.26-.65.61-1.18,0.94-1.81l1.05-1.88,1.3-1.89,0.68-1c0.24-.32.51-0.62,0.77-0.94l1.61-1.88a39,39,0,0,1,3.79-3.44,38.43,38.43,0,0,1,4.26-2.93,37.57,37.57,0,0,1,4.59-2.17,37,37,0,0,1,4.58-1.46l2.23-.41c0.36-.06.71-0.14,1.07-0.18l1.06-.09,2-.15,1.87,0a21.73,21.73,0,0,1,3.21.26l1.31,0.17,1.1,0.25,2.05,0.48-2.09.19-1.08.1-1.26.25a20,20,0,0,0-2.94.72l-1.63.51L941,427l-0.86.36c-0.28.13-.56,0.3-0.85,0.45l-1.71.94a31.11,31.11,0,0,0-3.24,2.38,30.55,30.55,0,0,0-2.91,2.8,29.57,29.57,0,0,0-2.35,3.17,29.06,29.06,0,0,0-1.8,3.24L926.69,442c-0.1.26-.21,0.51-0.3,0.77l-0.21.79L925.76,445l-0.24,1.41a9.69,9.69,0,0,0-.18,1.24l0,1,0,0.84v1.1l0,2.1a7.94,7.94,0,0,1-15.88-.15A8.16,8.16,0,0,1,909.78,450Z"/><path class="cls-1" d="M986.26,460.05L986,461.11l-0.33,1.27-0.22.82-0.39,1.23c-0.28.85-.6,1.82-1,2.81l-1.35,2.89c-0.5,1-1.17,2-1.81,3.12s-1.51,2.11-2.31,3.22-1.84,2.13-2.88,3.17a37.73,37.73,0,0,1-11.8,7.78,36.94,36.94,0,0,1-9.83,2.48l-2.57.16a24.22,24.22,0,0,1-2.57,0,18.59,18.59,0,0,1-2.56-.21l-2.73-.39-2.2-.57c-0.38-.11-0.69-0.16-1.14-0.31l-1.26-.43a22.89,22.89,0,0,1-2.43-.93l-2.24-1.07a34.73,34.73,0,0,1-7.69-5.61,32.49,32.49,0,0,1-5.37-6.87,31.93,31.93,0,0,1-1.82-3.55c-0.5-1.18-.9-2.35-1.28-3.47s-0.62-2.22-.79-3.28-0.35-2-.42-3l-0.14-2.63c0-.81.07-1.56,0.1-2.22l0-.94c0-.3.08-0.57,0.12-0.83l0.2-1.3,0.16-1.07s0,0.38,0,1.09l0,1.3c0,0.26,0,.53,0,0.82l0.11,0.93c0.08,0.65.15,1.37,0.25,2.15l0.54,2.47c0.21,0.87.56,1.77,0.85,2.73s0.8,1.89,1.22,2.89,1,2,1.67,2.94a28.56,28.56,0,0,0,2.14,2.88,28.2,28.2,0,0,0,5.58,5.15,29.05,29.05,0,0,0,7.06,3.57l1.93,0.56a5.08,5.08,0,0,0,.94.22l0.92,0.16,0.91,0.17c0.28,0.07.73,0.08,1.08,0.12l2.26,0.2a0.84,0.84,0,1,1-.16,0h1l1,0a12.38,12.38,0,0,0,1.95-.17,16.4,16.4,0,0,0,1.91-.29l1.86-.43a26.89,26.89,0,0,0,6.69-2.93,24.64,24.64,0,0,0,5.14-4.24,24.11,24.11,0,0,0,1.94-2.33c0.56-.79,1-1.6,1.51-2.36s0.81-1.54,1.11-2.29,0.59-1.44.79-2.13l0.52-1.91,0.21-1.4,0.11-.58,0.08-.8,0.12-1.3,0.1-1.08a7.86,7.86,0,1,1,15.66,1.41A8.53,8.53,0,0,1,986.26,460.05Z"/><path class="cls-1" d="M909.77,371.11l2,1.06,1,0.56,0.85,0.39,1,0.49a11.12,11.12,0,0,0,1.29.47l1.48,0.5,1.63,0.37,0.87,0.2c0.29,0.06.59,0.07,0.9,0.12l1.89,0.23a31.78,31.78,0,0,0,4,0,32.27,32.27,0,0,0,4.24-.61,33.23,33.23,0,0,0,4.17-1.33,33.81,33.81,0,0,0,3.94-1.85l1.77-1.14c0.29-.19.59-0.37,0.87-0.57l0.79-.63L944,368.1l1.32-1.28c0.41-.42.86-0.8,1.2-1.22l1-1.19,0.88-1.06,0.66-1,1.26-1.87-0.65,2.17-0.35,1.16-0.55,1.31-0.63,1.51c-0.22.54-.54,1-0.84,1.62l-1,1.76-1.21,1.78-0.64.94c-0.23.31-.49,0.59-0.74,0.9l-1.57,1.85a39.73,39.73,0,0,1-3.78,3.47,40.24,40.24,0,0,1-4.44,3.1,41.12,41.12,0,0,1-5,2.38,41.72,41.72,0,0,1-5.18,1.69l-2.59.5c-0.43.07-.85,0.17-1.27,0.22l-1.25.12-2.43.2-2.29,0c-0.75,0-1.42,0-2.16-.08l-2.08-.26-1.84-.27-1.18-.23-2.22-.43a7.93,7.93,0,0,1,3-15.57A8.18,8.18,0,0,1,909.77,371.11Z"/></svg>