<svg id="Layer_2" data-name="Layer 2" xmlns="http://www.w3.org/2000/svg" viewBox="0 0 329.72 180.71"><defs><style>.cls-1{fill:#09f;}.cls-2{fill:#fff;}.cls-3{opacity:0.6;}.cls-3,.cls-5,.cls-7{font-size:29.85px;fill:#e8e8e8;font-family:Futura;}.cls-3,.cls-8{letter-spacing:2px;}.cls-4,.cls-7{letter-spacing:3px;}.cls-5{letter-spacing:4px;}.cls-6{letter-spacing:5px;}.cls-9{letter-spacing:1px;}</style></defs><title>logo-focus</title><path class="cls-1" d="M163.21,92.29c0,38.87-30.67,71.32-69.52,72.35q-1.17,0-2.36,0t-2.36,0c-38.85-1-69.52-33.48-69.52-72.35V17.77H163.21V92.29Z"/><path class="cls-2" d="M66.69,67.29A23.09,23.09,0,0,1,74,50.19,24,24,0,0,1,91.45,43,24.66,24.66,0,0,1,116,67.57a23.19,23.19,0,0,1-7.27,17.25,24.92,24.92,0,0,1-34,.79Q66.68,78.62,66.69,67.29Zm7.18,0.09a17,17,0,0,0,5.25,12.86,17.4,17.4,0,0,0,24.58-.09,17.37,17.37,0,0,0,5.1-12.64,17.28,17.28,0,0,0-5-12.64,17.58,17.58,0,0,0-24.83,0A17,17,0,0,0,73.86,67.38Zm6.32-32.62a4.34,4.34,0,0,1,7.42-3.05,4.39,4.39,0,0,1,0,6.2,4.1,4.1,0,0,1-3.05,1.28,4.24,4.24,0,0,1-3.12-1.28A4.47,4.47,0,0,1,80.18,34.77Zm13.71,0a4.36,4.36,0,0,1,7.45-3.05,4.38,4.38,0,0,1-6.2,6.2A4.47,4.47,0,0,1,93.9,34.77Z"/><rect class="cls-2" x="87.74" y="98.06" width="7" height="38"/><path class="cls-2" d="M89.74,118.06h-13v7h6.1c1.78,0,3.22.72,3.22,2.5s-1.44,2.5-3.22,2.5h-6.1v6h13v-18Z"/><text class="cls-3" transform="translate(171.95 44.37)">Ö<tspan class="cls-4" x="29.35" y="0">REB</tspan><tspan class="cls-4" x="92.59" y="0">R</tspan><tspan class="cls-4" x="113.63" y="0">O</tspan></text><text class="cls-5" transform="translate(171.95 82.89)">ES<tspan class="cls-6" x="43.23" y="0">C</tspan><tspan x="69.16" y="0">A</tspan><tspan class="cls-6" x="95.74" y="0">PE</tspan></text><text class="cls-7" transform="translate(171.95 121.41)">R<tspan class="cls-8" x="21.31" y="0">O</tspan><tspan class="cls-9" x="50.36" y="0">OM</tspan></text></svg>